<svg width="23" height="22" viewBox="0 0 23 22" fill="none" xmlns="http://www.w3.org/2000/svg">
<path d="M7.98554 17.32C7.98554 17.4056 7.8871 17.4741 7.76298 17.4741C7.62174 17.4869 7.5233 17.4185 7.5233 17.32C7.5233 17.2344 7.62174 17.1659 7.74586 17.1659C7.87426 17.1531 7.98554 17.2216 7.98554 17.32ZM6.65446 17.1274C6.6245 17.213 6.7101 17.3115 6.8385 17.3371C6.94978 17.3799 7.07818 17.3371 7.10386 17.2515C7.12954 17.1659 7.04822 17.0675 6.91982 17.029C6.80854 16.999 6.68442 17.0418 6.65446 17.1274ZM8.54622 17.0547C8.4221 17.0846 8.3365 17.1659 8.34934 17.2644C8.36218 17.35 8.47346 17.4056 8.60186 17.3757C8.72598 17.3457 8.81158 17.2644 8.79874 17.1788C8.7859 17.0975 8.67034 17.0418 8.54622 17.0547ZM11.3625 0.653641C5.42609 0.653641 0.884995 5.1605 0.884995 11.0969C0.884995 15.8434 3.87245 19.9052 8.13962 21.3347C8.68746 21.4331 8.88006 21.095 8.88006 20.8168C8.88006 20.5514 8.86722 19.0877 8.86722 18.1889C8.86722 18.1889 5.87121 18.8309 5.24205 16.9134C5.24205 16.9134 4.75413 15.6679 4.05221 15.3469C4.05221 15.3469 3.07208 14.675 4.12069 14.6878C4.12069 14.6878 5.18641 14.7734 5.77277 15.7921C6.7101 17.4441 8.28086 16.9691 8.89291 16.6866C8.99135 16.0018 9.26955 15.5267 9.57771 15.2442C7.18518 14.9789 4.77125 14.6322 4.77125 10.5148C4.77125 9.33779 5.09653 8.74715 5.78133 7.99387C5.67005 7.71567 5.30625 6.56862 5.89261 5.08774C6.78714 4.80954 8.84582 6.24334 8.84582 6.24334C9.70183 6.00366 10.622 5.87954 11.5337 5.87954C12.4453 5.87954 13.3655 6.00366 14.2215 6.24334C14.2215 6.24334 16.2802 4.80526 17.1747 5.08774C17.7611 6.5729 17.3973 7.71567 17.286 7.99387C17.9708 8.75143 18.3903 9.34207 18.3903 10.5148C18.3903 14.645 15.8693 14.9746 13.4768 15.2442C13.8706 15.5823 14.2044 16.2243 14.2044 17.2301C14.2044 18.6725 14.1916 20.4573 14.1916 20.8082C14.1916 21.0864 14.3884 21.4246 14.932 21.3261C19.212 19.9052 22.1139 15.8434 22.1139 11.0969C22.1139 5.1605 17.2989 0.653641 11.3625 0.653641ZM5.04517 15.4154C4.98953 15.4582 5.00237 15.5567 5.07513 15.638C5.14361 15.7065 5.24205 15.7364 5.29769 15.6808C5.35333 15.638 5.34049 15.5395 5.26773 15.4582C5.19925 15.3897 5.10081 15.3598 5.04517 15.4154ZM4.58293 15.0687C4.55297 15.1244 4.59577 15.1929 4.68137 15.2357C4.74985 15.2785 4.83545 15.2656 4.86541 15.2057C4.89537 15.1501 4.85257 15.0816 4.76697 15.0388C4.68137 15.0131 4.61289 15.0259 4.58293 15.0687ZM5.96965 16.5924C5.90117 16.6481 5.92685 16.7765 6.02529 16.8578C6.12373 16.9562 6.24785 16.9691 6.30349 16.9006C6.35914 16.8449 6.33346 16.7165 6.24785 16.6352C6.15369 16.5368 6.02529 16.5239 5.96965 16.5924ZM5.48173 15.9633C5.41325 16.0061 5.41325 16.1173 5.48173 16.2158C5.55021 16.3142 5.66577 16.357 5.72141 16.3142C5.78989 16.2586 5.78989 16.1473 5.72141 16.0489C5.66149 15.9504 5.55021 15.9076 5.48173 15.9633Z" fill="#333333"/>
</svg>
