<svg width="35" height="35" viewBox="0 0 35 35" fill="none" xmlns="http://www.w3.org/2000/svg">
<g clip-path="url(#clip0)">
<path d="M13.9855 23.32C13.9855 23.4056 13.8871 23.4741 13.763 23.4741C13.6217 23.4869 13.5233 23.4185 13.5233 23.32C13.5233 23.2344 13.6217 23.1659 13.7459 23.1659C13.8743 23.1531 13.9855 23.2216 13.9855 23.32ZM12.6545 23.1274C12.6245 23.213 12.7101 23.3115 12.8385 23.3371C12.9498 23.3799 13.0782 23.3371 13.1039 23.2515C13.1295 23.1659 13.0482 23.0675 12.9198 23.029C12.8085 22.999 12.6844 23.0418 12.6545 23.1274ZM14.5462 23.0547C14.4221 23.0846 14.3365 23.1659 14.3493 23.2644C14.3622 23.35 14.4735 23.4056 14.6019 23.3757C14.726 23.3457 14.8116 23.2644 14.7987 23.1788C14.7859 23.0975 14.6703 23.0418 14.5462 23.0547ZM17.3625 6.65364C11.4261 6.65364 6.88499 11.1605 6.88499 17.0969C6.88499 21.8434 9.87245 25.9052 14.1396 27.3347C14.6875 27.4331 14.8801 27.095 14.8801 26.8168C14.8801 26.5514 14.8672 25.0877 14.8672 24.1889C14.8672 24.1889 11.8712 24.8309 11.2421 22.9134C11.2421 22.9134 10.7541 21.6679 10.0522 21.3469C10.0522 21.3469 9.07208 20.675 10.1207 20.6878C10.1207 20.6878 11.1864 20.7734 11.7728 21.7921C12.7101 23.4441 14.2809 22.9691 14.8929 22.6866C14.9913 22.0018 15.2695 21.5267 15.5777 21.2442C13.1852 20.9789 10.7712 20.6322 10.7712 16.5148C10.7712 15.3378 11.0965 14.7472 11.7813 13.9939C11.6701 13.7157 11.3063 12.5686 11.8926 11.0877C12.7871 10.8095 14.8458 12.2433 14.8458 12.2433C15.7018 12.0037 16.622 11.8795 17.5337 11.8795C18.4453 11.8795 19.3655 12.0037 20.2215 12.2433C20.2215 12.2433 22.2802 10.8053 23.1747 11.0877C23.7611 12.5729 23.3973 13.7157 23.286 13.9939C23.9708 14.7514 24.3903 15.3421 24.3903 16.5148C24.3903 20.645 21.8693 20.9746 19.4768 21.2442C19.8706 21.5823 20.2044 22.2243 20.2044 23.2301C20.2044 24.6725 20.1916 26.4573 20.1916 26.8082C20.1916 27.0864 20.3884 27.4246 20.932 27.3261C25.212 25.9052 28.1139 21.8434 28.1139 17.0969C28.1139 11.1605 23.2989 6.65364 17.3625 6.65364ZM11.0452 21.4154C10.9895 21.4582 11.0024 21.5567 11.0751 21.638C11.1436 21.7065 11.2421 21.7364 11.2977 21.6808C11.3533 21.638 11.3405 21.5395 11.2677 21.4582C11.1993 21.3897 11.1008 21.3598 11.0452 21.4154ZM10.5829 21.0687C10.553 21.1244 10.5958 21.1929 10.6814 21.2357C10.7498 21.2785 10.8354 21.2656 10.8654 21.2057C10.8954 21.1501 10.8526 21.0816 10.767 21.0388C10.6814 21.0131 10.6129 21.0259 10.5829 21.0687ZM11.9697 22.5924C11.9012 22.6481 11.9269 22.7765 12.0253 22.8578C12.1237 22.9562 12.2479 22.9691 12.3035 22.9006C12.3591 22.8449 12.3335 22.7165 12.2479 22.6352C12.1537 22.5368 12.0253 22.5239 11.9697 22.5924ZM11.4817 21.9633C11.4133 22.0061 11.4133 22.1173 11.4817 22.2158C11.5502 22.3142 11.6658 22.357 11.7214 22.3142C11.7899 22.2586 11.7899 22.1473 11.7214 22.0489C11.6615 21.9504 11.5502 21.9076 11.4817 21.9633Z" fill="#333333"/>
</g>
<circle cx="17.4995" cy="17.4995" r="17.2407" stroke="#333333" stroke-width="0.517467"/>
<defs>
<clipPath id="clip0">
<rect width="21.2289" height="21.9137" fill="white" transform="translate(6.88499 6.31118)"/>
</clipPath>
</defs>
</svg>
