<svg width="35" height="35" viewBox="0 0 35 35" fill="none" xmlns="http://www.w3.org/2000/svg">
<g clip-path="url(#clip0)">
<path d="M26.5976 6.68006H8.39666C7.56267 6.68006 6.88505 7.36715 6.88505 8.21062V26.3784C6.88505 27.2218 7.56267 27.9089 8.39666 27.9089H26.5976C27.4316 27.9089 28.1139 27.2218 28.1139 26.3784V8.21062C28.1139 7.36715 27.4316 6.68006 26.5976 6.68006ZM13.3011 24.8762H10.1547V14.7451H13.3058V24.8762H13.3011ZM11.7279 13.3615C10.7186 13.3615 9.90353 12.5417 9.90353 11.5371C9.90353 10.5325 10.7186 9.71275 11.7279 9.71275C12.7325 9.71275 13.5522 10.5325 13.5522 11.5371C13.5522 12.5464 12.7372 13.3615 11.7279 13.3615ZM25.0954 24.8762H21.949V19.9481C21.949 18.7729 21.9253 17.2613 20.3142 17.2613C18.6747 17.2613 18.4235 18.5407 18.4235 19.8628V24.8762H15.2771V14.7451H18.2956V16.1288H18.3382C18.76 15.3327 19.7882 14.494 21.3188 14.494C24.5031 14.494 25.0954 16.5932 25.0954 19.3226V24.8762Z" fill="#333333"/>
</g>
<circle cx="17.4995" cy="17.4995" r="17.2407" stroke="#333333" stroke-width="0.517467"/>
<defs>
<clipPath id="clip0">
<rect width="21.2289" height="24.2616" fill="white" transform="translate(6.88505 5.1637)"/>
</clipPath>
</defs>
</svg>
