<svg width="35" height="35" viewBox="0 0 35 35" fill="none" xmlns="http://www.w3.org/2000/svg">
<g clip-path="url(#clip0)">
<path d="M25.9318 13.1752C25.9453 13.3638 25.9453 13.5524 25.9453 13.741C25.9453 19.4927 21.5676 26.12 13.5663 26.12C11.1013 26.12 8.81136 25.406 6.88513 24.1668C7.23537 24.2072 7.57209 24.2207 7.9358 24.2207C9.96975 24.2207 11.8421 23.5337 13.3373 22.3618C11.4245 22.3214 9.8216 21.0687 9.26932 19.3445C9.53874 19.3849 9.80812 19.4118 10.091 19.4118C10.4816 19.4118 10.8723 19.3579 11.236 19.2637C9.24241 18.8596 7.74718 17.1085 7.74718 14.9937V14.9398C8.32637 15.2631 8.99993 15.4651 9.7138 15.4921C8.5419 14.7108 7.77413 13.3773 7.77413 11.8686C7.77413 11.0604 7.98961 10.3195 8.3668 9.67298C10.5086 12.3131 13.7279 14.0373 17.3379 14.2259C17.2705 13.9026 17.2301 13.5659 17.2301 13.2291C17.2301 10.8314 19.1698 8.87826 21.5809 8.87826C22.8337 8.87826 23.9651 9.40359 24.7599 10.2522C25.7432 10.0636 26.6861 9.69993 27.5213 9.20155C27.1979 10.2118 26.511 11.0604 25.6085 11.5992C26.4841 11.505 27.3327 11.2624 28.1139 10.9257C27.5213 11.7878 26.7804 12.5555 25.9318 13.1752Z" fill="#333333"/>
</g>
<circle cx="17.4995" cy="17.4995" r="17.2407" stroke="#333333" stroke-width="0.517467"/>
<defs>
<clipPath id="clip0">
<rect width="21.2289" height="21.2289" fill="white" transform="matrix(-1 0 0 1 28.1139 6.88464)"/>
</clipPath>
</defs>
</svg>
